<svg width="311" height="65" viewBox="0 0 311 65" fill="none" xmlns="http://www.w3.org/2000/svg">
    <g clip-path="url(#clip0_0_1)">
        <path d="M19.9433 -3.05176e-05V0.00089146H3.05176e-05V12.3694V12.3804H0.000948822L20.8075 64.2599H38.2786H42.1935L62.9973 12.3841H63V12.3786V0.000904363H43.045V6.22904L19.9543 0.00273424V0.000889114H19.9469L19.9433 -3.05176e-05ZM19.9542 6.14129L43.0358 12.3758L31.5 45.0564L19.9542 12.3484L19.9542 6.14129Z" fill="white"/>
    </g>
    <path d="M112.305 40C104.961 23.4766 99.4531 11.0742 95.7812 2.79297C99.4531 2.79297 102.207 2.79297 104.043 2.79297C109.824 16.0352 114.16 25.957 117.051 32.5586C117.051 32.5195 117.051 32.5 117.051 32.5C117.051 32.5391 117.051 32.5586 117.051 32.5586C122.832 19.3164 127.168 9.39453 130.059 2.79297C133.73 2.79297 136.465 2.79297 138.262 2.79297C130.957 19.3164 125.488 31.7188 121.855 40C117.598 40 114.414 40 112.305 40ZM151.199 9.12109C151.199 13.1055 151.199 16.0938 151.199 18.0859C159.207 18.0859 165.203 18.0859 169.188 18.0859C169.188 21.0156 169.188 23.2227 169.188 24.707C161.18 24.707 155.184 24.707 151.199 24.707C151.199 28.6914 151.199 31.6797 151.199 33.6719C160.418 33.6719 167.312 33.6719 171.883 33.6719C171.883 36.4844 171.883 38.5938 171.883 40C159.617 40 150.418 40 144.285 40C144.285 31.7188 144.285 25.5273 144.285 21.4258C144.285 13.1445 144.285 6.93359 144.285 2.79297C157.879 2.79297 168.094 2.79297 174.93 2.79297C172.117 5.60547 170.008 7.71484 168.602 9.12109C160.867 9.12109 155.066 9.12109 151.199 9.12109ZM208.199 2.79297C211.285 2.79297 213.59 2.79297 215.113 2.79297C215.113 19.3164 215.113 31.7188 215.113 40C212.066 40 209.762 40 208.199 40C198.902 28.7891 191.91 20.3906 187.223 14.8047C187.223 26.0156 187.223 34.4141 187.223 40C184.176 40 181.871 40 180.309 40C180.309 23.4766 180.309 11.0742 180.309 2.79297C183.395 2.79297 185.699 2.79297 187.223 2.79297C196.559 14.0039 203.551 22.4023 208.199 27.9883C208.199 16.7773 208.199 8.37891 208.199 2.79297ZM223.539 2.79297C226.625 5.87891 228.93 8.18359 230.453 9.70703C230.453 23.1836 230.453 33.2812 230.453 40C227.406 40 225.102 40 223.539 40C223.539 31.7188 223.539 25.5273 223.539 21.4258C223.539 13.1445 223.539 6.93359 223.539 2.79297ZM269.465 2.79297C266.652 5.60547 264.543 7.71484 263.137 9.12109C260.012 9.12109 257.668 9.12109 256.105 9.12109C256.105 22.832 256.105 33.125 256.105 40C253.059 40 250.754 40 249.191 40C249.191 26.25 249.191 15.957 249.191 9.12109C244.582 9.12109 241.125 9.12109 238.82 9.12109C238.82 6.30859 238.82 4.19922 238.82 2.79297C252.414 2.79297 262.629 2.79297 269.465 2.79297ZM310.879 2.79297C304.277 11.6602 299.316 18.3203 295.996 22.7734C295.996 30.4297 295.996 36.1719 295.996 40C292.949 40 290.645 40 289.082 40C289.082 32.3438 289.082 26.6016 289.082 22.7734C282.48 13.9062 277.52 7.24609 274.199 2.79297C278.223 2.79297 281.23 2.79297 283.223 2.79297C287.363 8.37891 290.488 12.5781 292.598 15.3906C296.699 9.80469 299.785 5.60547 301.855 2.79297C305.879 2.79297 308.887 2.79297 310.879 2.79297Z" fill="white"/>
    <path d="M121.691 51.5977C122.72 51.5977 123.488 51.5977 123.996 51.5977C123.996 57.1055 123.996 61.2396 123.996 64C122.98 64 122.212 64 121.691 64C118.592 60.263 116.262 57.4635 114.699 55.6016C114.699 59.3385 114.699 62.138 114.699 64C113.684 64 112.915 64 112.395 64C112.395 58.4922 112.395 54.3581 112.395 51.5977C113.423 51.5977 114.191 51.5977 114.699 51.5977C117.811 55.3346 120.142 58.1341 121.691 59.9961C121.691 56.2591 121.691 53.4596 121.691 51.5977ZM144.109 53.707C144.109 55.0352 144.109 56.0312 144.109 56.6953C146.779 56.6953 148.777 56.6953 150.105 56.6953C150.105 57.6719 150.105 58.4076 150.105 58.9023C147.436 58.9023 145.438 58.9023 144.109 58.9023C144.109 60.2305 144.109 61.2266 144.109 61.8906C147.182 61.8906 149.48 61.8906 151.004 61.8906C151.004 62.8281 151.004 63.5312 151.004 64C146.915 64 143.849 64 141.805 64C141.805 61.2396 141.805 59.1758 141.805 57.8086C141.805 55.0482 141.805 52.9779 141.805 51.5977C146.336 51.5977 149.741 51.5977 152.02 51.5977C151.082 52.5352 150.379 53.2383 149.91 53.707C147.332 53.707 145.398 53.707 144.109 53.707ZM179.027 51.5977C178.09 52.5352 177.387 53.2383 176.918 53.707C175.876 53.707 175.095 53.707 174.574 53.707C174.574 58.2773 174.574 61.7083 174.574 64C173.559 64 172.79 64 172.27 64C172.27 59.4167 172.27 55.9857 172.27 53.707C170.733 53.707 169.581 53.707 168.812 53.707C168.812 52.7695 168.812 52.0664 168.812 51.5977C173.344 51.5977 176.749 51.5977 179.027 51.5977ZM198.711 64C197.695 64 196.927 64 196.406 64C196.406 58.4922 196.406 54.3581 196.406 51.5977C197.435 51.5977 198.203 51.5977 198.711 51.5977C198.711 55.3346 198.711 58.1341 198.711 59.9961C200.273 58.1341 201.439 56.7344 202.207 55.7969C203.77 57.6719 204.935 59.0716 205.703 59.9961C205.703 56.2591 205.703 53.4596 205.703 51.5977C206.732 51.5977 207.5 51.5977 208.008 51.5977C208.008 57.1055 208.008 61.2396 208.008 64C206.992 64 206.224 64 205.703 64C204.154 62.138 202.988 60.7383 202.207 59.8008C200.658 61.6628 199.492 63.0625 198.711 64ZM235.328 51.5977C235.797 52.0664 236.493 52.7695 237.418 53.707C237.418 55.3086 237.418 57.7174 237.418 60.9336C237.418 61.1549 237.418 61.474 237.418 61.8906C236.949 62.3594 236.253 63.0625 235.328 64C233.674 64 231.207 64 227.926 64C227.457 63.5312 226.754 62.8281 225.816 61.8906C225.816 60.0807 225.816 57.3529 225.816 53.707C226.285 53.2383 226.988 52.5352 227.926 51.5977C229.566 51.5977 232.034 51.5977 235.328 51.5977ZM234.117 61.8906C234.339 61.6693 234.671 61.3372 235.113 60.8945C235.113 59.5143 235.113 57.4505 235.113 54.7031C234.892 54.4818 234.56 54.1497 234.117 53.707C233.01 53.707 231.344 53.707 229.117 53.707C228.896 53.9284 228.564 54.2604 228.121 54.7031C228.121 56.0833 228.121 58.1471 228.121 60.8945C228.342 61.1159 228.674 61.4479 229.117 61.8906C229.234 61.8906 229.41 61.8906 229.645 61.8906C230.634 61.8906 232.125 61.8906 234.117 61.8906ZM264.445 64C263.794 63.0885 262.818 61.7214 261.516 59.8984C260.63 59.8984 259.296 59.8984 257.512 59.8984C257.512 60.8099 257.512 62.1771 257.512 64C257.004 64 256.236 64 255.207 64C255.207 61.2396 255.207 57.1055 255.207 51.5977C257.121 51.5977 259.992 51.5977 263.82 51.5977C263.885 51.5977 263.983 51.5977 264.113 51.5977C264.582 52.0664 265.279 52.7695 266.203 53.707C266.203 54.6185 266.203 55.9857 266.203 57.8086C265.786 58.2253 265.161 58.8568 264.328 59.7031C264.992 60.6536 265.995 62.0859 267.336 64C266.698 64 265.734 64 264.445 64ZM264.016 54.7031C263.794 54.4818 263.462 54.1497 263.02 53.707C261.796 53.707 259.96 53.707 257.512 53.707C257.512 54.6185 257.512 55.9857 257.512 57.8086C258.736 57.8086 260.572 57.8086 263.02 57.8086C263.241 57.5742 263.573 57.2357 264.016 56.793C264.016 56.3372 264.016 55.6406 264.016 54.7031ZM296.336 51.5977C293.81 54.1237 291.915 56.0182 290.652 57.2812C293.152 60.263 295.021 62.5026 296.258 64C294.773 64 293.66 64 292.918 64C291.108 61.8125 289.747 60.1719 288.836 59.0781C288.042 59.8854 287.443 60.4844 287.039 60.875C287.039 62.2682 287.039 63.3099 287.039 64C286.023 64 285.255 64 284.734 64C284.734 59.8724 284.734 56.7799 284.734 54.7227C284.734 53.3294 284.734 52.2878 284.734 51.5977C285.763 51.5977 286.531 51.5977 287.039 51.5977C287.039 53.3815 287.039 54.7161 287.039 55.6016C287.039 56.4479 287.039 57.0794 287.039 57.4961C289.656 54.8789 291.622 52.9128 292.938 51.5977C294.448 51.5977 295.581 51.5977 296.336 51.5977Z" fill="white" fill-opacity="0.6"/>
    <defs>
        <clipPath id="clip0_0_1">
            <rect width="63" height="64.26" fill="white"/>
        </clipPath>
    </defs>
</svg>
